<?xml version="1.0" encoding="UTF-8"?>
<svg xmlns="http://www.w3.org/2000/svg" viewBox="0 0 651.97 283.46">
  <defs>
    <style>
      .cls-1 {
        letter-spacing: -.04em;
      }

      .cls-2, .cls-3, .cls-4 {
        fill: #fff;
      }

      .cls-5 {
        fill: #b2b2b2;
      }

      .cls-6 {
        fill: #c6c6c6;
      }

      .cls-7, .cls-8 {
        fill: #706f6f;
      }

      .cls-3 {
        font-family: DiavloMedium-Regular, Diavlo;
        font-size: 100px;
        letter-spacing: 0em;
      }

      .cls-9 {
        letter-spacing: .04em;
      }

      .cls-10 {
        letter-spacing: -.01em;
      }

      .cls-8 {
        stroke: #fff;
        stroke-miterlimit: 10;
        stroke-width: 2px;
      }

      .cls-11 {
        letter-spacing: -.02em;
      }

      .cls-12 {
        letter-spacing: -.02em;
      }

      .cls-4 {
        font-family: Stolzl-Book, Stolzl;
        font-size: 19px;
      }

      .cls-13 {
        letter-spacing: .05em;
      }

      .cls-14 {
        letter-spacing: .03em;
      }

      .cls-15 {
        letter-spacing: .03em;
      }

      .cls-16 {
        letter-spacing: .05em;
      }

      .cls-17 {
        letter-spacing: .05em;
      }

      .cls-18 {
        letter-spacing: .03em;
      }
    </style>
  </defs>
  <g id="Capa_4" data-name="Capa 4">
    <g>
      <path class="cls-6" d="m161.8,161.36s-.01-.09-.02-.14c0,.04.02.1.02.14Z"/>
      <path class="cls-6" d="m168.54,173.68c-.39-.19-.72-.51-1.08-.77-.19-.09-.02-.39-.27-.45-.25-.36-.55-.65-1-.73-.06-.04-.11-.07-.17-.11.62,1.54.7,3.1.39,4.48.07.07.13.14.2.21.18.21.36.45.58.05.38-.43.99-.62,1.27-1.17h0c.26-.07.29-.32.43-.51.4-.55.14-.76-.35-1Z"/>
      <path class="cls-6" d="m162.18,162.81s-.04-.08-.07-.12c-.01-.02-.02-.04-.03-.05.1.37.22.76.35,1.17.02-.35.15-.73-.25-.99Z"/>
      <polygon class="cls-6" points="180.14 136.23 180.14 136.23 180.14 136.23 180.14 136.23"/>
    </g>
  </g>
  <g id="Capa_1" data-name="Capa 1">
    <g>
      <path class="cls-8" d="m242.55,227.92V72.05"/>
      <text class="cls-4" transform="translate(268.78 198.73)"><tspan class="cls-16" x="0" y="0">Sis</tspan><tspan class="cls-14" x="30.44" y="0">t</tspan><tspan class="cls-17" x="40.77" y="0">ema I</tspan><tspan class="cls-9" x="99.69" y="0">n</tspan><tspan class="cls-15" x="112.25" y="0">t</tspan><tspan class="cls-16" x="122.59" y="0">eg</tspan><tspan class="cls-13" x="149.89" y="0">r</tspan><tspan class="cls-17" x="158.61" y="0">al de In</tspan><tspan class="cls-18" x="237.31" y="0">f</tspan><tspan class="cls-16" x="246.86" y="0">ormación</tspan><tspan class="cls-11" x="54.05" y="22.8">A</tspan><tspan class="cls-10" x="67.56" y="22.8">mbie</tspan><tspan class="cls-12" x="114.38" y="22.8">n</tspan><tspan class="cls-1" x="125.72" y="22.8">t</tspan><tspan class="cls-10" x="134.84" y="22.8">al de Michoacán</tspan></text>
    </g>
    <path class="cls-5" d="m214.31,142.56c-.69-53.21-44.37-94.69-97.58-94-52.26.68-94.25,42.93-95.07,94.85l13.57-.18c.63-45.24,37.17-81.94,82.69-82.54,46.11-.6,84,35.97,84.88,82.01"/>
    <path class="cls-2" d="m21.65,142.69c.65,53.21,44.31,95.03,97.52,94.38,52.26-.64,94.29-42.78,95.14-94.7l-11.54.14c-.67,45.24-39.27,81.86-84.78,82.42-46.11.57-81.91-36.19-82.77-82.23"/>
    <text class="cls-3" transform="translate(307.66 162.19)"><tspan x="0" y="0">SIIAM</tspan></text>
  </g>
  <g id="Capa_3" data-name="Capa 3">
    <g>
      <path class="cls-6" d="m72.68,148.43c-.45-.01-.71.1-.8.32l1.08-.38c-.08.04-.17.06-.28.05Z"/>
      <path class="cls-6" d="m188.79,113.19h0l-.76-.84c-.1-.14-.19-.29-.29-.43-.37-.48-.25-1.09-.41-1.62,0,0,0,0,0,0,0-.27-.01-.55-.02-.82.01-.19-.02-.39.04-.56.28-.74.29-1.27-.74-1.18-.14-.57-.21-1.15-.19-1.75.03-.97-.14-1.13-.96-1.14-.01.02-.02.04-.03.05,0,0,0,0,0,0,0,0,.04-.05.04-.05-.65-.04-.89-.37-.78-1.01.05-.3.01-.62-.01-.92-.03-.4-.2-.69-.68-.61-.15-.04-.34.01-.44-.17,0-.21.04-.4.16-.58.39-.38.77-.77,1.16-1.15.09-.23.19-.46.28-.7.26-.69.09-.98-.71-1.16-.09-.02-.18-.03-.27-.05-.03-.35-.39-.37-.57-.57-.11-.17-.25-.26-.45-.24-.04-.02-.09-.03-.13-.03-.25-.33-.53-.64-.9-.83-.31-.33-.81-.17-1.14-.43-.26-.31-.64-.34-.99-.45h0c-.21-.11-.42-.22-.63-.32-.13-.06-.28-.14-.4-.04-.18.15-.02.32.05.44.22.41.47.81.71,1.22-.47.53-.74,1.14-.92,1.78,0,0,0,0,0,0,0,0,0,0,0,.01-.17.59-.27,1.2-.38,1.81-.03.04-.03.07-.02.12-.05.1-.09.2-.14.3-.2.15-.16.41-.25.6-.16.47-.83.66-.72,1.29,0,.15-.1.32.09.43-.34.34-.4.66.06.96.23.15.46.32.68.48.1.19.19.38.29.57-.05.68.28,1.4-.26,2.02-.1.19.01.31.13.43,0,.05,0,.1.01.14-.02.04-.03.08-.03.13-.44.13-.94-.04-1.34.28,0,0,0,0,0,0-.46,0-.92.02-1.38.03-.34,0-.67,0-1.01,0-.61.33-1.17.73-1.61,1.28h0c-.43.28-.58.75-.84,1.16-.39,0-.35-.33-.42-.57-.05.05-.08.09-.11.1.03-.09.07-.18.11-.1,0-.05,0-.09,0-.14h0c0-.24,0-.48,0-.72.07-.42-.08-.38-.43-.3-.61.13-1.26.45-1.84-.12h0l.26-.3c.17,0,.33,0,.5-.01.18-.02.21-.17.22-.32,0-.15-.01-.33-.19-.33-.49.01-1.07-.27-1.39.37-.26.16-.26.44-.31.69-.19.15-.39.3-.58.45h0c-.3,0-.66.09-.9-.04-.54-.3-.81.01-1.12.33-1.11.1-1.95.7-2.7,1.48-.51-.15-1.15.28-1.57-.33-.02-.24-.07-.46-.29-.6h0c-.02-.23-.13-.4-.31-.53-.04-.08-.06-.18-.12-.25-.27-.31-.52-.81-.98-.68-.39.11-.04.63-.2.93-.02.04,0,.09,0,.14l-.13.29s-.04.06-.04.1h0c-.8-.23-1.61-.45-2.41-.68,0,0,0,0,0,0-.13-.05-.25-.12-.38-.15-1.1-.21-1.23-.14-1.6.85-.04.11-.13.2-.19.29-.05,0-.1.02-.14.02-.38-.03-.83.03-.84-.52,0-.43-.21-.53-.58-.51-.52.03-.48-.28-.32-.6.07-.15.21-.26.31-.38-.01-.07.04-.13.07-.2,0,.05-.02.11-.07.2.67-.13.24-.84.59-1.14.25-.22-.03-.39-.06-.58-.1-.24-.29-.31-.53-.3-.18-.17-.51-.12-.61-.42-.12-.18-.17-.37-.13-.58.04-.05.08-.1.12-.14.45-.73.41-.99-.25-1.19-1.16-.34-2.34-.44-3.46.18-.29.07-.57.15-.76.42h0c-.08.06-.16.11-.25.17-.57-.14-.79-.74-1.31-.96-.1-.05-.21-.1-.31-.15-.09-.21-.24-.17-.26,0-.06.48-.85.81-.29,1.4.2.14.4.28.6.41h0c-.02.14-.04.27-.05.41h0c-.24.15-.49.3-.73.45-.04.04-.07.09-.11.13-.42.13-.68.78-1.26.4-.11-.27-.29-.47-.6-.51-.1,0-.19,0-.29.01-.23-.12-.43-.31-.72-.28-.52.3-.94-.23-1.43-.16-.91.07-1.82.18-2.73,0-.18-.05-.32,0-.45.13-.14,0-.27,0-.41-.01-.58-.24-.27-.71-.28-1.1h0c.11-.39.12-.73-.05-1.14-.26-.64-.45-1.35-.14-2.05t0,0h0c.06-.05.11-.1.17-.16.26-.21-.03-.26-.11-.35-.53-.64-1.09-1.27-.88-2.21.51-.2,1.03-.17,1.55-.11.77.2.86.12,1.03-.9.27-.66.11-.95-.55-.98-.36-.02-.71,0-1.03-.2-.14-.23-.45-.31-.57-.5-.49-.79-.84-.38-1.2.09-.14-.04-.27-.08-.41-.12-.04-.05-.08-.1-.12-.15.01-.23.02-.46.03-.69h0c.32-.46.19-1.12-.32-1.61-.21-.18-.46-.15-.68-.09-.64.16-1.26.15-1.9.02-.29-.06-.62-.1-.9.07h0c-.38.09-.76.18-1.14.27-.38.11-.76.22-1.14.33-.78.04-.71.61-.7,1.13-.1.24-.21.48-.31.72-.31.45-.39,1.09-1.02,1.29-.15.04-.15.15-.14.27-.18.37-.62.43-.84.75-.22.13-.14.35-.18.54h0c-.14.02-.28.04-.42.06-.04-.02-.08-.03-.13-.03-.16-.28-.41-.37-.72-.3-.3-.11-.62-.12-.93-.12-.14-.02-.27-.02-.38,0-.33,0-.66-.04-.97-.19h0c-.25-.2-.5-.13-.75.01h0c-.09.06-.18.11-.27.17-.34.03-.6-.16-.82-.36-.41-.39-.73-.33-1.06.08-.15.02-.32-.01-.42.15-.19.1-.36.21-.44.41-.98.41-1.2.35-1.71-.42-.19-.4-.49-.74-.56-1.19-.05-.34-.12-.64-.45-.82h0c.01-.22.04-.44-.13-.62,0,0,0,0,0,0,.09-.44-.01-.84-.18-1.24,0-.38,0-.77.01-1.15.23-.66-.57-.61-.71-1.01,0-.1-.05-.14-.13-.15-.27-.19-.56-.11-.85-.1-.32-.1-.59.16-.9.12.04-.2.08-.4.12-.6.16-.19.26-.39.12-.63,0-.02-.15.05-.24.07-.43.28-.99,0-1.42.3-.25,0-.49,0-.74,0-.27-.16-.55-.3-.87-.27-1.73.17-3.24,1.05-4.87,1.56-.53.15-1.06.3-1.59.44-.09-.01-.18-.02-.27-.03-.3-.21-.66-.25-1.01-.31h0c-.22-.21-.22-.76-.77-.41-1.01.62-2.06,1.16-3.32,1,0,0,0,0,0,0-1.15-.47-2.25-.37-3.3.3-.32.2-.65.4-.97.6-.16.17-.32.31-.57.36-.25.06-.46.22-.18.5,0,.26,0,.67-.34.55-.53-.19-.84.18-1.24.29,0,0,0,0,0,0-1.05.28-2.27.31-2.56,1.72-.08.36-.35.2-.57.19-.38,0-.76-.58-1.15-.03-.41.61-.29,1.29-.18,1.94.06.38-.02.49-.41.52-.35.03-.68-.2-1.02-.04,0,0,0,0,0,0-.26.1-.59-.08-.82.19-.72.41-1.49.69-2.31.85-.27,0-.75-.2-.42.42,0,.05,0,.1,0,.14-.11.84-.29.91-1.06.63-.67-.24-.67-.97-1.13-1.34,0-.18-.08-.3-.27-.31h0c-.86-.47-1.83-.45-2.75-.69-.14,0-.29-.01-.43-.02-.2.46.25.61.41.91,0,0,0,0,0,0l.15.13c.11.17.27.31.28.52-.09.05-.18.1-.27.15-.34-.02-.67-.19-1.01-.06-.63.07-1.24.14-1.87-.14-.39-.17-.85.02-1.21.27-.4.28.15.53.07.81-.03.09,0,.19,0,.28-.19.25-.19.49,0,.74,0,0,0,0,0,0,.05.31.13.6.3.87h0c.06.24.21.45.16.71-.06.19-.12.38-.19.56,0,0,0,0,0,0-.45.39-.56.96-.79,1.47-.12.27-.01.44.22.58h0c.6.99.85,1.06,1.49.43.74-.31,1.4-.86,2.28-.71.45.41,1.1.23,1.59.52.51.19,1.05.14,1.58.18.32.11.64.18.98.16.82.39,1.7.64,2.47,1.12.04.06.09.11.13.17.39.43.78.85,1.17,1.28.41.82.46,1.68.38,2.57-.35.21-.68.43-.43.93.1.19-.04.36-.11.53-.35.23-.74.14-1.11.13-.91-.01-1,.07-1.05,1.02-.04.04-.04.09-.02.13-.12.78.02,1.5.44,2.17.48.76.22,1.62.31,2.44.1,1.4.47,1.9,1.73,2.28.44.18,1.02.19,1.01.88,0,.09-.02.17-.03.26-.2.44.07.88.03,1.32h0c0,.1,0,.19,0,.29,0,.29,0,.58,0,.86-.05.13-.1.26-.14.39-.11.33-.79.54-.29.97.36.31.53-.32.86-.36.19-.05.38-.1.57-.15.24.1.49.2.73.31.04.06.08.12.13.18h0c0,.18.11.28.27.23.44-.13.94-.11,1.33-.42.55-.07.92-.47,1.38-.7.21-.1.56-.31.64-.09.25.72,1,1.01,1.3,1.66-.16.41-.65.55-.78.98,0,0,0,0,0,0-.31.42.08.48.32.61-.16.16.6.51-.12.54-.28-.11-.37.13-.39.28-.06.67-.47,1.17-.75,1.74-.24.5-.54,1-.6,1.57-.25.83-1.03,1.4-1.16,2.29-.02.04-.03.07-.04.1-.26.68-.54,1.36-.78,2.05-.3.85-.59.99-1.38.61-.13-.06-.27-.09-.4-.14-.47-.33-1.01-.51-1.53-.74-.33-.14-.59-.54-1.02-.23-.38.16-.75.33-1.01.68-.16.13-.32.27-.49.4-.13.05-.26.11-.4.16,0,0,0,0,0,0-.38.2-.75.4-1.13.6-.05.04-.11.08-.16.12-.37.07-.78-.14-1.13.13-.89,0-1.41.77-2.17,1.02,0,0,0,0,0,0h0c-.17-.01-.29.07-.41.17-.49.1-.83.39-1.05.83h0c-.48.37-.49.92-.57,1.44-.02-.01-.05-.01-.07,0-.04-.05-.08-.14-.13-.16-.4-.15-.65-.77-1.14-.51-.54.29-.02.77-.05,1.16-.01.13.06.27.1.4.08.57.34,1.04.74,1.43.18.45-.24.31-.41.42-.46-.06-.8.07-.95.55-.03.11-.1.18-.18.23l88.27-30.9-2.27-6.44,13.67,4.92-7.57,12.4-2.27-6.44-102.29,35.81-1.56-4.43,7.21-2.52c-.04-.17-.05-.35-.26-.44-.1-.29-.21-.58-.31-.86-.04-.53-.31-.65-.74-.38-.28.17-.62.22-.84.49-.44.15-.88.32-1.28.57-.78.32-1.56.69-2.44.6-.14,0-.28.02-.43.02-.37,0-.76-.13-1.04.23-.52.21-.93-.25-1.41-.24-.32-.17-.65-.22-1.01-.14-.33.07-.73-.45-1.01.11-.16.1-.31.21-.29.43-.28.21-.61.37-.74.73h0c-.71.77-1.41,1.54-2.12,2.31-.37.17-.4.56-.59.85-.33.38-.57.13-.84-.1-.8-.68-.8-.68-1.44.02-.51.59.24.69.4,1.01,0,0,0,0,0,0,.33.38.06.83.14,1.24-.09.53-.18,1.06-.27,1.59-.55.1-1.14.06-1.63.42,0,0,0,0,0,0-.21.02-.31.2-.46.3-1.09.75-1.35,2.17-2.37,2.97-.09.07-.04.28.13.34.31.17.66.27.87.57.04.06.08.12.12.18,0,.11.02.21.13.26.14.2.29.41.43.61.04.13-.03.3.13.39.27.49.12.9-.24,1.27-.32.2-.39.39.02.58.48.23.96.48,1.43.72.08.06.17.11.25.17,1.13.89,2.21,1.83,3.06,3-.05.18.08.29.15.43.13.3.26.59.39.89.04.05.08.09.12.14.59.89.94,1.9,1.33,2.88.11.44.21.88.45,1.27.14.33.28.66.43,1,.02.13.12.17.24.17.12.12.27.16.43.15.4.28.88.38,1.32.56.7.39,1.41.76,2.18.99.54.33,1.16.44,1.73.69l.27.03c.37.15.74.3,1.11.46,0-.05,0-.1,0-.15.02-1.28.04-2.57.06-3.85,0-.5.02-1,.02-1.5,0-.58-.07-1.33.63-1.51.1-.03.21-.04.31-.04.45-.04.9-.05,1.35-.06h.33c0-.79.02-1.58.02-2.37,0-.97.03-1.93.06-2.9.01-.49.02-.98.05-1.47,0,0,0,0,0,0-.05-.03-.04-.12-.03-.15,0-.02.02-.04.04-.06,0-.09,0-.2,0-.31,0,0-.01,0-.02,0-.05-.03-.04-.12-.03-.15,0-.02.02-.07.06-.09,0,0,0,0,.01,0,0-.09.01-.2.04-.27.09-.2.27-.24.49-.27.45-.06.9-.05,1.34.03.32.06.43.05.45.34,0,.06,0,.12,0,.18.01,0,.03.02.03.03,0,.06,0,.13-.01.19,0,.02-.01.02-.02.03,0,.09,0,.19,0,.28.01,0,.03.02.03.03,0,.06,0,.13-.01.19,0,.02-.01.03-.02.04,0,.09,0,.17,0,.26,0,.9.02,1.81.03,2.71,0,.04,0,.08,0,.12,0,.81,0,1.62,0,2.43.23-.74.44-1.49.6-2.25.01-.61.03-1.22.05-1.84.01-.49.02-.98.05-1.48-.05-.03-.04-.12-.03-.15,0-.01.02-.03.04-.05,0-.09,0-.21,0-.32,0,0,0,0,0,0-.05-.03-.04-.12-.03-.15,0-.02.02-.07.06-.09,0,0,0,0,0,0,0-.09.01-.2.04-.27.09-.2.27-.24.49-.27.45-.06.9-.05,1.34.03.31.06.43.05.45.34,0,.06,0,.12,0,.18.02.01.03.02.03.03,0,.06,0,.13-.01.19,0,.02-.01.04-.02.05,0,.09,0,.17,0,.26.02.01.03.02.04.03,0,.06,0,.13-.01.19,0,.02-.01.04-.03.05,0,0,0,0,0,0,0,.08,0,.17,0,.25,0,.18,0,.36,0,.55.68-.04,1.37-.08,2.05-.11.53-.02,1.06-.04,1.59-.05.42-.01.83-.1,1.23.06.14.06.28.14.36.26.07.1.09.21.12.33.31,1.32.39,2.66.69,3.96l.2.74c.42,1.45.95,2.87,1.59,4.24.27.59.57,1.18.68,1.81.09.55.04,1.11-.01,1.66-.02.23-.04.35-.26.44-.17.07-.35.09-.53.1-3.58.21-7.18.12-10.77.04-.49-.01-.97-.06-1.45-.09h-2.79c.13.05.25.1.38.16.23.23.55.21.83.32h0c.25.1.49.2.74.29.43.15.84.38,1.31.39l.06.03h.06c1.34.37,2.62.96,4.02,1.15.64.34,1.36.3,2.05.39.18.02.37.04.55.06.07.13.19.12.31.09.04.03.08.04.13.03.46.23.94.38,1.45.42h0c.11.12.27.13.41.15.44.29.94.44,1.44.59,0,0,0,0,0,0,.13.22.34.28.58.28h0s0,0,0,0c.13.23.36.26.59.28.19.19.45.25.7.33h0c1.15.53,2.24,1.2,3.46,1.57.06.12.16.13.27.12.13.14.28.22.47.25.09.06.15.18.28.15.28.06.57.12.85.18.48.16.94.36,1.45.4.19.06.38.11.56.17,0,0,.02-.05.02-.05h0s0,0,.01,0c-.01.02-.02.03-.03.05.28.21.62.22.95.27,1.72.24,3.43.47,5.09,1.03,1.4.48,2.87.62,4.29,1,1.08.45,2.17.88,3.35,1,1.38.48,2.77.96,4.15,1.44,0,0,0,0,0,0,.45.31.93.54,1.44.72.43.36.93.55,1.45.71.59-.17,1.25-.13,1.75-.56.42-.08.12-.37.17-.56.17-.31.17-.62,0-.93-.08-.12-.15-.25-.32-.27-.14-.06-.28-.12-.42-.19h0c-.75-.59-.83-1.45-.98-2.29,0-.04,0-.09-.02-.13,0-.18,0-.37-.01-.55.01-.27.02-.54.03-.81.17-.29.08-.61.1-.91.05-.65-.08-1.34.44-1.88.04-.05.06-.11.08-.17.26-.56.53-1.12.79-1.68.33-.48.9-.17,1.3-.4,1.48.04,2.88-.48,4.32-.69.23-.03.46-.12.62-.32.42-.16.58-.7,1.09-.73.66.04,1.23-.19,1.73-.62.05-.04.09-.09.14-.13.25-.1.32-.34.45-.54.14-.06.28-.12.43-.18.09,0,.18,0,.28,0,.12-.22.28-.42.37-.65.53-1.43.54-2.85-.22-4.22-.09-.1-.18-.2-.27-.3-.08-.35.11-.66.14-.99-.01,0-.02-.01-.03-.02,0,0,0,0,0,0,0,0,.03.02.03.02q.83-1.18.15-2.17c-.31-.6-.06-1.29-.27-1.91.04-.17.09-.34.13-.51.25-.29.49-.59.74-.88.04-.05.08-.1.11-.14.27-.18.47-.41.6-.72.34-.19.68-.38,1.02-.57h0c.12,0,.22-.02.26-.16.93-.22,1.75-.77,2.72-.87.33,0,.67-.1,1-.08-.18-.35-.45-.65-.78-.85-.2-.12-.44-.24-.63-.41-.06-.04-.11-.09-.15-.16,0-.01,0-.03-.01-.04-.07-.11-.11-.24-.1-.41,0-.2.09-.38.18-.56.04-.09.11-.17.16-.26.05-.09.1-.17.15-.25.01-.01.02-.03.03-.04.46-.65,1.19-1.11,1.93-1.35.12-.04.25-.06.38-.09.46-.13.92-.23,1.39-.23.9-.01,1.79.28,2.58.75.4.24.77.52,1.11.84.09.08.2.18.31.29.21.21.42.46.45.72.89,1.38,1.2,3.19.82,4.83.58-.55,1.15-1.24,1.81-1.59-.28-.42-.18-1.08.21-1.38.96,1.08,1.92,2.16,2.88,3.24.36.41.74.85.85,1.41,0,0,0,0,0,0,.18.03.35.05.53.07.04-.69.54-.89,1.1-1.01.21-.05.41-.1.61-.15.9-.19,1.8-.4,2.74-.28.62.09,1.25.19,1.87.28.1.04.2.08.3.13.44.29.97.16,1.43.32h0s.08.05.13.06c.32.15.67.1,1.01.09h0c1.1.59,2.14.13,3.13-.28.79-.32,1.43-.2,1.82.53.2.37.52.61.82.88.25.23.64.34.73.74.18.84.98,1.04,1.69.42.03-.04.05-.09.08-.13.51-2.87,1.7-5.8,2.71-7.65.65-1.19,1.71-3.53,2.29-4.23-.06-.08-.12-.15-.17-.23,0,0,0,0,0,0,.09-.48-.04-1.02.25-1.45.32-.48.22-.89-.1-1.3l-.02-.67c.05-.09.1-.18.15-.27h0c.34-.2.36-.67.72-.85h0c.32-.07.62-.25.97-.18.21.32.5.56.81.77.45.31.69.76.82,1.28.06.24-.15.62.13.7.3.08.51-.27.72-.48.11-.12.27-.2.28-.39.38-.35.78-.69,1.05-1.15,0,0,0,0,0,0,.08-.15.17-.3.25-.45.75-.57,1.36-1.29,1.93-2.03.15-.2.29-.27.5-.3.57.01.6-.52.85-.84.1-.15.2-.29.3-.44.26-.21.27-.52.33-.81h0c.19-.16.27-.37.23-.61.16-.29.31-.57.47-.86.14-.09.28-.18.42-.28,0,0,0,0,0,0,.19-.03.36-.1.44-.29.18-.1.37-.2.55-.3.82-.33,1.5-.87,2.16-1.44.1-.05.19-.1.29-.15.29.02.37-.19.45-.4.22-.1.24-.31.28-.52.09-.46.2-.91.43-1.32.15-.34.21-.81.46-.99.64-.44.82-.94.54-1.63v-.56c.2-.11.35-.24.42-.45.42-.63,1.22-1,1.3-1.87.11-.13.17-.27.13-.44.15-.32.18-.66.14-1.01.03-.03.04-.07.02-.11.29-.5-.01-1.11.29-1.61h0s0,0,0,0c.49-.7-.06-1.65.56-2.31.25-.18.09-.52.29-.72.68-.32,1.43-.3,2.14-.44.1-.05.2-.09.31-.14h0c.66-.11.84-.78,1.31-1.12.35-.15.24-.32.01-.48-.21-.3-.55-.54-.45-.98.08-.08.17-.16.13-.29h0c0-.29,0-.57,0-.86,0-.59.31-1.23-.25-1.74-.18-.48-.61-.65-1.04-.83-.06-.1-.12-.2-.18-.31-.26-.36.01-.81-.23-1.17,0,0,0,0,0,0h.01c-.02-.53-.14-1.06-.3-1.58,0,0,0,0,0,0,.02-.27-.1-.51-.15-.76-.08-.39-.54-.62-.43-1.08.23-.39.39-.82.73-1.15.36.04.3-.39.54-.48.4-.23.4.19.57.34.91.33,1.65-.21,2.44-.48.25-.22.53-.42.47-.81.18-.22.15-.48.11-.74,0-.43,0-.86,0-1.29,0-.19,0-.38,0-.58,0-.1,0-.19,0-.29.02-.38.04-.76.17-1.12.23-.3.46-.6.69-.89.39-.04.81.19,1.16-.14.26-.02.54.1.87-.08-.3-.24-.52-.44-.83-.52Zm-121.28,49.38c-.5.17-.94.47-1.28.87-.25.29-.38.57-.39.84,0,.1-.08.18-.18.18h0c-.1,0-.18-.08-.18-.19,0-.35.16-.71.48-1.08.39-.44.88-.78,1.44-.98.62-.22,1.28-.25,1.92-.27.5-.02,1.01-.04,1.49-.15.99-.23,1.89-.9,2.41-1.77.05-.09.16-.12.25-.07.09.05.12.16.07.25-.57.96-1.55,1.69-2.64,1.95-.51.12-1.04.14-1.56.16-.64.03-1.24.05-1.81.25Zm6.19-.57c-.41.57-1.08.99-1.85,1.14-.36.07-.72.08-1.08.09-.44.01-.85.03-1.24.14-.33.1-.63.26-.86.48-.11.1-.24.26-.24.42,0,.1-.08.18-.18.18h0c-.1,0-.18-.08-.18-.19,0-.23.12-.46.35-.68.27-.26.62-.46,1.01-.57.43-.13.89-.14,1.33-.16.34-.01.69-.02,1.02-.09.67-.13,1.28-.5,1.62-.99.06-.08.17-.1.26-.04.08.06.1.17.04.26Zm32.99,12.68c-.14.58-.75.79-1.41.86-.62.07-1.3.02-1.69.06-.62.05-1.25.08-1.88.1.03,1.36-.09,2.73-.21,4.09-.04.44-.65,1.03-1.21.79-.53-.23-.29-1.27-.29-1.71,0-1.05-.01-2.11-.02-3.16-.37,0-.73,0-1.1-.02-1.15-.05-3.51.47-4.13-.99-.47-1.1.84-2.31,1.43-3.07.22-.27.43-.55.66-.81-.43-.08-.8-.25-.99-.59-.4-.72.65-1.55,1.12-2.06.37-.41.77-.8,1.17-1.18-.04,0-.08,0-.12,0-1.14-.14-.75-1.33-.33-2.02.88-1.46,1.41-3,2.31-4.44.15-.24.32-.49.58-.57,1.32-.42,3.09,3.74,3.52,4.6.2.4.4.85.28,1.28-.16.57-.58.88-1.11,1.05.08.07.16.14.25.21.66.57,1.32,1.14,1.79,1.85.21.32.39.7.29,1.06-.1.36-.54.51-1.04.58.68.76,1.33,1.55,1.81,2.47.25.49.45,1.07.32,1.61Z"/>
    </g>
    <polygon class="cls-2" points="141.07 108.99 120 108.99 120 131.74 141.07 124.37 141.07 108.99"/>
    <path class="cls-2" d="m120,187.57h21.07v-58.22l-21.07,7.38v50.85Zm3.4-24.35c.05-.09.1-.17.15-.25.01-.01.02-.03.03-.04.46-.65,1.19-1.11,1.93-1.35.12-.04.25-.06.38-.09.46-.13.92-.23,1.39-.23.9-.01,1.79.28,2.58.75.4.24.77.52,1.11.84.09.08.2.18.31.29.21.21.42.46.45.72.89,1.38,1.2,3.19.82,4.83.58-.55,1.15-1.24,1.81-1.59-.28-.42-.18-1.08.21-1.38.96,1.08,1.92,2.16,2.88,3.24.36.41.74.85.85,1.41s-.2,1.24-.72,1.29c.84-.06,1.38,1.31.76,1.93-.47-.37-1.14-.26-1.64.05-.51.3-.93.76-1.42,1.08-.66.43-1.46.6-2.22.47.01.87-.28,1.74-.81,2.39.64-.1,1.31-.02,1.92.23.37.15.76.45.76.87,0,.63-.79.82-1.38.8-1.75-.05-3.5-.1-5.25-.14-.37-.01-.76-.02-1.09-.19-.09-.04-.16-.11-.23-.17-1.25.18-3.01-2.35-3.39-3.25-.64-1.51-.67-3.32-.08-4.85.31-.79.77-1.51,1.1-2.29,0,0,0-.01,0-.02-.02-.22.06-.43.12-.64.1-.3.19-.6.22-.91.08-.81-.36-1.57-1-1.96-.2-.12-.44-.24-.63-.41-.06-.04-.11-.09-.15-.16,0-.01,0-.03-.01-.04-.07-.11-.11-.24-.1-.41,0-.2.09-.38.18-.56.04-.09.11-.17.16-.26Z"/>
    <polygon class="cls-2" points="110.86 118.41 89.8 118.41 89.8 142.32 110.86 134.94 110.86 118.41"/>
    <path class="cls-2" d="m89.8,187.57h21.07v-47.64l-21.07,7.38v40.27Zm7.17-19.39c.37-.41.77-.8,1.17-1.18-.04,0-.08,0-.12,0-1.14-.14-.75-1.33-.33-2.02.88-1.46,1.41-3,2.31-4.44.15-.24.32-.49.58-.57,1.32-.42,3.09,3.74,3.52,4.6.2.4.4.85.28,1.28-.16.57-.58.88-1.11,1.05.08.07.16.14.25.21.66.57,1.32,1.14,1.79,1.85.21.32.39.7.29,1.06-.1.36-.54.51-1.04.58.68.76,1.33,1.55,1.81,2.47.25.49.45,1.07.32,1.61-.14.58-.75.79-1.41.86-.62.07-1.3.02-1.69.06-.62.05-1.25.08-1.88.1.03,1.36-.09,2.73-.21,4.09-.04.44-.65,1.03-1.21.79-.53-.23-.29-1.27-.29-1.71,0-1.05-.01-2.11-.02-3.16-.37,0-.73,0-1.1-.02-1.15-.05-3.51.47-4.13-.99-.47-1.1.84-2.31,1.43-3.07.22-.27.43-.55.66-.81-.43-.08-.8-.25-.99-.59-.4-.72.65-1.55,1.12-2.06Z"/>
    <polygon class="cls-2" points="80.65 136.69 59.59 136.69 59.59 152.9 80.65 145.52 80.65 136.69"/>
    <path class="cls-2" d="m59.59,154.84v32.73h21.07v-37.07l-20.11,7.04-.95-2.7Zm14.11,7.16c-.41.57-1.08.99-1.85,1.14-.36.07-.72.08-1.08.09-.44.01-.85.03-1.24.14-.33.1-.63.26-.86.48-.11.1-.24.26-.24.42,0,.1-.08.18-.18.18h0c-.1,0-.18-.08-.18-.19,0-.23.12-.46.35-.68.27-.26.62-.46,1.01-.57.43-.13.89-.14,1.33-.16.34-.01.69-.02,1.02-.09.67-.13,1.28-.5,1.62-.99.06-.08.17-.1.26-.04.08.06.1.17.04.26Zm-7.75,1.2c.39-.44.88-.78,1.44-.98.62-.22,1.28-.25,1.92-.27.5-.02,1.01-.04,1.49-.15.99-.23,1.89-.9,2.41-1.77.05-.09.16-.12.25-.07.09.05.12.16.07.25-.57.96-1.55,1.69-2.64,1.95-.51.12-1.04.14-1.56.16-.64.03-1.24.05-1.81.25-.5.17-.94.47-1.28.87-.25.29-.38.57-.39.84,0,.1-.08.18-.18.18h0c-.1,0-.18-.08-.18-.19,0-.35.16-.71.48-1.08Zm-4.18,13.04c0-.5.02-1,.02-1.5,0-.58-.07-1.33.63-1.51.1-.03.21-.04.31-.04.45-.04.9-.05,1.35-.06h.33c0-.79.02-1.58.02-2.37,0-.97.03-1.93.06-2.9.01-.49.02-.98.05-1.47,0,0,0,0,0,0-.05-.03-.04-.12-.03-.15,0-.02.02-.04.04-.06,0-.09,0-.2,0-.31,0,0-.01,0-.02,0-.05-.03-.04-.12-.03-.15,0-.02.02-.07.06-.09,0,0,0,0,.01,0,0-.09.01-.2.04-.27.09-.2.27-.24.49-.27.45-.06.9-.05,1.34.03.32.06.43.05.45.34,0,.06,0,.12,0,.18.01,0,.03.02.03.03,0,.06,0,.13-.01.19,0,.02-.01.02-.02.03,0,.09,0,.19,0,.28.01,0,.03.02.03.03,0,.06,0,.13-.01.19,0,.02-.01.03-.02.04,0,.09,0,.17,0,.26,0,.9.02,1.81.03,2.71,0,.04,0,.08,0,.12,0,.81,0,1.62,0,2.43.23-.74.44-1.49.6-2.25.01-.61.03-1.22.05-1.84.01-.49.02-.98.05-1.48-.05-.03-.04-.12-.03-.15,0-.01.02-.03.04-.05,0-.09,0-.21,0-.32,0,0,0,0,0,0-.05-.03-.04-.12-.03-.15,0-.02.02-.07.06-.09,0,0,0,0,0,0,0-.09.01-.2.04-.27.09-.2.27-.24.49-.27.45-.06.9-.05,1.34.03.32.06.43.05.45.34,0,.06,0,.12,0,.18.02.01.03.02.03.03,0,.06,0,.13-.01.19,0,.02-.01.04-.02.05,0,.09,0,.17,0,.26.02.01.03.02.04.03,0,.06,0,.13-.01.19,0,.02-.01.04-.03.05,0,0,0,0,0,0,0,.08,0,.17,0,.25,0,.18,0,.36,0,.55.68-.04,1.37-.08,2.05-.11.53-.02,1.06-.04,1.59-.05.42-.01.83-.1,1.23.06.14.06.28.14.36.26.07.1.09.21.12.33.31,1.32.39,2.66.69,3.96l.2.74c.42,1.45.95,2.87,1.59,4.24.27.59.57,1.18.68,1.81.09.55.04,1.11-.01,1.66-.02.23-.04.35-.26.44-.17.07-.35.09-.53.1-3.58.21-7.18.12-10.77.04-.49-.01-.97-.06-1.45-.09h-3.29c-.11.04-.37-.11-.42-.21-.05-.1-.05-.22-.05-.33.02-1.28.04-2.57.06-3.85Z"/>
    <path class="cls-7" d="m157.01,174.26c-.03.24.55.38.61,0,.06-.32-.55-.52-.61,0Z"/>
    <path class="cls-7" d="m159.3,165.72c-.03.08-.08.19-.13.32-.52,1.29-1.89,4.72-2.02,7.05,0,.13.09.23.22.24,0,0,0,0,.01,0,.12,0,.22-.09.23-.22.12-2.25,1.31-5.53,1.82-6.8.05-.13.08-.24.12-.37.05-.16.06-.33,0-.35-.11-.05-.22,0-.26.12Z"/>
    <path class="cls-2" d="m165.1,128.17l-2.27-6.44-12.03,4.21v61.63h21.07v-70.48l-6.77,11.08Zm-4.81,52.51c-7.07-1.53-3.66-11.9-1.26-16.29.93-1.7,2.73-5.8,2.69-3.97-.04,1.83,1.55,6.32,3.77,10.08,3.06,5.19-.63,11.17-5.19,10.18Z"/>
    <polygon class="cls-2" points="159 110.85 171.87 115.48 171.87 99.08 150.8 99.08 150.8 120.96 161.27 117.3 159 110.85"/>
  </g>
</svg>